<?xml version="1.0" encoding="UTF-8"?> <svg xmlns="http://www.w3.org/2000/svg" width="20" height="20" viewBox="0 0 20 20" fill="none"><path fill-rule="evenodd" clip-rule="evenodd" d="M5.15135 8.61095C4.33655 8.61095 4.1665 8.77083 4.1665 9.53687V10.9258C4.1665 11.6918 4.33655 11.8517 5.15135 11.8517H7.12105V17.4072C7.12105 18.1733 7.2911 18.3332 8.1059 18.3332H10.0756C10.8904 18.3332 11.0604 18.1733 11.0604 17.4072V11.8517H13.2721C13.8901 11.8517 14.0493 11.7388 14.2191 11.1801L14.6411 9.79125C14.932 8.8343 14.7528 8.61095 13.6942 8.61095H11.0604V6.29613C11.0604 5.78476 11.5014 5.37021 12.0453 5.37021H14.8483C15.6631 5.37021 15.8332 5.21033 15.8332 4.44428V2.59243C15.8332 1.82638 15.6631 1.6665 14.8483 1.6665H12.0453C9.32571 1.6665 7.12105 3.73926 7.12105 6.29613V8.61095H5.15135Z" stroke="#3EB16C" stroke-width="1.5" stroke-linejoin="round"></path></svg> 