<?xml version="1.0" encoding="UTF-8"?> <svg xmlns="http://www.w3.org/2000/svg" width="56" height="50" viewBox="0 0 56 50" fill="none"> <path fill-rule="evenodd" clip-rule="evenodd" d="M32.2457 9.92978V1.96153C32.2457 1.46161 32.4619 0.961685 32.8072 0.595329C33.1411 0.236605 33.6002 0 34.0972 0C35.3758 0 35.9184 0.595329 36.6089 1.35094C36.7455 1.50359 36.8859 1.66005 37.0794 1.85468L49.1561 13.9979C49.2471 14.0895 49.3496 14.1849 49.4634 14.2917C50.0742 14.8641 51 15.7228 51 16.5166C51 17.0623 50.9014 17.4439 50.7192 17.7835C50.5409 18.1117 50.2905 18.3712 49.968 18.6956C49.858 18.8101 49.6872 18.9857 49.4824 19.207C48.659 20.0809 47.2628 21.5692 46.8758 21.5692C46.6254 21.5692 46.337 21.5349 46.0942 21.4089C45.8059 21.2601 45.5972 21.0044 45.5972 20.5694C45.5972 20.0122 46.1056 19.5428 46.485 19.1994C46.5533 19.1345 46.614 19.0772 46.6747 19.0162C46.7734 18.9208 46.9479 18.749 47.1528 18.5544C47.756 17.9782 48.6211 17.1539 48.8677 16.757C47.9078 15.6503 41.3629 9.13983 37.9179 5.70905C36.9049 4.70157 36.1422 3.94215 35.9563 3.75515C35.888 3.68646 35.759 3.54526 35.6111 3.38498C35.2203 2.95375 34.6625 2.33934 34.3249 2.14471C34.3173 2.15616 34.3135 2.16379 34.3135 2.16761C34.3059 2.19432 34.3097 2.25538 34.3135 2.37368C34.3135 2.43856 34.3135 2.5187 34.3173 2.62937L34.3211 5.81591C34.3211 6.97222 34.3362 7.83087 34.3514 8.53305C34.378 10.0786 34.3969 10.9144 34.2034 11.4105C33.9227 12.1394 33.3953 12.1317 32.2457 12.1165C32.1281 12.1165 31.9953 12.1165 31.7031 12.1165H13.0133C12.9298 12.1165 12.816 12.105 12.6794 12.0936C12.5049 12.0821 12.2886 12.063 12.0799 12.063C11.8333 12.063 11.6057 12.0669 11.6057 12.0821V21.4013H15.8854C16.0182 21.4013 18.2112 19.123 19.2319 18.0621C19.4557 17.8293 19.6264 17.6538 19.7099 17.566C19.7668 17.5126 19.8237 17.4477 19.8844 17.3867C20.2942 16.9516 20.7343 16.4822 21.5425 16.4822C23.6179 16.4822 23.9176 18.0621 23.9176 19.8176C23.9176 20.1114 23.9062 20.4587 23.8948 20.8022C23.8872 21.0006 23.8797 21.1952 23.8759 21.4013H32.7541C34.3286 21.4013 34.3249 22.0081 34.3211 23.2903V23.359V30.5907V30.5946C34.3173 30.751 34.3135 30.8655 34.3097 30.9647C34.3021 31.1556 34.2983 31.2548 34.3476 31.3769C34.4273 31.3349 34.4842 31.27 34.5487 31.1937C34.598 31.1365 34.6474 31.0792 34.7081 31.0182L35.2051 30.5068C37.0832 28.5758 41.5147 24.0192 42.3266 23.3323C42.596 23.1072 42.9185 22.985 43.2145 22.985C43.3511 22.985 43.4801 23.0079 43.6015 23.0575C43.7267 23.111 43.8367 23.1911 43.9316 23.3056C44.0795 23.4811 44.1706 23.7216 44.1706 24.0383C44.1706 24.5917 43.4421 25.2862 42.7592 25.9388C42.596 26.0953 42.4367 26.2517 42.2925 26.3967L42.4822 26.3853C42.8275 26.3738 43.1765 26.3586 43.4914 26.3586C45.1191 26.3586 46.5912 26.6906 46.5912 28.8544V37.6278C46.5912 38.2957 46.3901 38.9254 45.9994 39.3795C45.6351 39.8031 45.1153 40.0702 44.4476 40.0702H23.8759V47.1722C23.8759 47.8477 23.7317 48.6262 23.3636 49.191C23.0487 49.6718 22.5859 50 21.9257 50C21.3679 50 20.9923 49.9084 20.6509 49.7176C20.3284 49.5344 20.0666 49.2749 19.7099 48.9162V48.92L14.861 44.0391C14.7662 43.9475 14.6562 43.8483 14.5309 43.7376C13.9011 43.1881 13.0057 42.3981 13.313 41.5967C13.5976 40.8602 14.0643 40.7762 14.5575 40.967C15.0014 41.1388 15.4302 41.5776 15.7109 41.8638C15.7261 41.8791 15.6692 41.8219 15.7944 41.9478L19.8275 46.0044L20.8823 47.0653C20.962 47.1455 21.053 47.2523 21.1441 47.3554C21.3148 47.5576 21.4969 47.7713 21.6904 47.8629C21.7018 47.8477 21.7094 47.8362 21.7094 47.8324C21.717 47.8057 21.7132 47.7408 21.7094 47.6263C21.7094 47.5614 21.7094 47.4813 21.7056 47.3706L21.7018 40.0397C21.7018 39.9023 21.698 39.7611 21.6904 39.6275C21.6639 38.9177 21.6411 38.3644 22.2975 38.0476C22.6921 37.8568 23.3864 37.8683 23.9631 37.8797C24.0618 37.8835 24.1528 37.8835 24.3198 37.8835H43.0096C43.0893 37.8835 43.2069 37.895 43.3435 37.9026C43.518 37.9179 43.7343 37.9331 43.9429 37.9331C44.1896 37.9331 44.4172 37.9331 44.4172 37.9179V28.5987H40.1336C40.0122 28.5987 38.6843 29.9992 38.0127 30.7091C37.8534 30.877 37.7282 31.0105 37.6523 31.083H37.6561C37.5195 31.2166 37.3753 31.3769 37.216 31.5486C36.4723 32.3691 35.4251 33.5178 34.4804 33.5178C33.8923 33.5178 33.3042 33.3346 32.8793 32.9721C32.4923 32.6439 32.2457 32.1707 32.2457 31.5563V28.6101C32.1964 28.6101 32.147 28.614 32.0977 28.6178C31.0923 28.6712 29.5519 28.7513 29.3052 27.7171C29.1269 26.9653 29.5253 26.6104 30.1627 26.4578C30.6825 26.3319 31.3617 26.3624 31.9497 26.3929C32.0522 26.3967 32.147 26.4006 32.2457 26.4044V23.588H23.8759V26.4158L25.6591 26.4273C26.0157 26.4273 26.3382 26.702 26.4824 27.0608C26.5355 27.1943 26.5659 27.3432 26.5659 27.4958C26.5621 27.6561 26.5242 27.8164 26.4445 27.9652C26.2472 28.3239 25.8033 28.614 24.9875 28.614C24.9496 28.614 24.9306 28.4766 24.9154 28.3659C24.8927 28.4766 24.8092 28.572 24.5854 28.6063C24.5816 28.614 24.574 28.614 24.5664 28.614H24.5626H24.5436C24.4981 28.6178 24.4488 28.6216 24.3919 28.6216C23.2233 28.6445 22.5897 28.633 22.1989 28.3621C21.7549 28.0606 21.698 27.5683 21.7018 26.6372V19.4093V19.4054C21.7056 19.249 21.7094 19.1307 21.7132 19.0353C21.7208 18.8406 21.7246 18.7414 21.6677 18.6117C21.6373 18.6307 21.6184 18.6536 21.588 18.688C21.5576 18.7261 21.5235 18.7643 21.459 18.833C20.5826 19.7527 18.1999 22.1226 15.6123 24.6947C11.9927 28.2934 7.97471 32.2928 7.17415 33.2163C7.61806 33.846 8.92703 35.1053 9.83762 35.9831C10.1563 36.2884 10.4295 36.5517 10.5775 36.7005C10.642 36.7654 10.7103 36.8303 10.7899 36.8989C11.1807 37.2539 11.7043 37.7271 11.7043 38.3033C11.7043 38.6048 11.6019 38.8872 11.397 39.0933C11.2111 39.2803 10.9531 39.3947 10.6154 39.3947C10.0956 39.3947 7.80018 36.9944 6.6923 35.838C6.47983 35.6205 6.32047 35.4488 6.19527 35.3267C5.51233 34.6398 5.08359 34.0559 5.0115 33.4224C4.93562 32.7736 5.23156 32.1287 6.00556 31.354V31.3502L9.54927 27.7858C9.73897 27.595 10.1298 27.2172 10.5927 26.7669C11.6171 25.7671 13.0247 24.4009 13.7532 23.6033C13.6697 23.6033 13.5862 23.6071 13.5027 23.6109C13.1651 23.6262 12.8274 23.6414 12.5314 23.6414C10.8582 23.6414 9.43165 23.2942 9.43165 20.951V12.563C9.43165 11.8532 9.59859 11.1548 9.99318 10.6587C10.3422 10.2122 10.8582 9.92978 11.5753 9.92978H32.2457ZM44.4476 28.5682H44.4438L44.4476 28.572V28.5682ZM44.4476 28.5643C44.44 28.5567 44.44 28.5605 44.4438 28.5682L44.4476 28.5643ZM44.4476 28.572C44.4552 28.5758 44.4589 28.5758 44.4476 28.5682V28.572ZM11.5753 21.4318C11.5829 21.4433 11.5829 21.4395 11.5791 21.4318H11.5753ZM11.5753 21.428C11.5677 21.4242 11.5639 21.4242 11.5753 21.4318V21.428Z" fill="#3EB16C"></path> </svg> 