<?xml version="1.0" encoding="UTF-8"?> <svg xmlns="http://www.w3.org/2000/svg" width="56" height="50" viewBox="0 0 56 50" fill="none"> <path fill-rule="evenodd" clip-rule="evenodd" d="M33.31 20.3589V20.9552C33.31 21.2381 33.4619 21.4828 33.686 21.6586C33.8494 21.7847 34.0545 21.8765 34.2672 21.9185C34.4799 21.9606 34.7003 21.9568 34.9016 21.8918C35.1903 21.8039 35.4486 21.586 35.6005 21.2075C35.6537 21.0775 35.6651 20.9246 35.6803 20.7488C35.6879 20.6303 35.6993 20.5041 35.7221 20.3551C35.8702 19.3268 36.3261 18.5699 36.9414 18.0653C37.4618 17.6371 38.0886 17.3925 38.7382 17.3198C39.3763 17.251 40.0373 17.3466 40.6299 17.5989C41.4048 17.9315 42.062 18.5202 42.4152 19.3459C42.4532 19.4376 42.4912 19.5332 42.5254 19.6326C42.8787 20.6379 42.8065 21.5936 42.4456 22.3887C42.0809 23.1839 41.4314 23.8146 40.6185 24.1663C40.5463 24.1969 40.4665 24.2275 40.383 24.258C40.1019 24.3574 39.7296 24.3804 39.3156 24.4033C38.4153 24.453 37.2567 24.518 37.2567 25.6227V28.9982C37.2567 29.2505 37.3859 29.4951 37.6176 29.6786C37.8569 29.8659 38.2026 29.9844 38.6318 29.9844C38.8293 29.9844 39.0687 29.843 39.2662 29.6404H39.27C39.4675 29.4416 39.6119 29.2008 39.6119 28.9982V27.213V26.8078H40.0107C40.5463 26.8078 41.1807 26.6052 41.7885 26.3032C42.4836 25.9553 43.1294 25.4813 43.5434 25.0302C44.4057 24.086 44.9109 23.0118 45.0818 21.8841C45.2604 20.7067 45.078 19.4644 44.5652 18.2449C44.4627 17.9965 44.3031 17.7403 44.1246 17.488C43.9005 17.1784 43.646 16.8879 43.4067 16.647H43.4029C43.1597 16.4024 42.909 16.173 42.6507 15.9742C42.3924 15.7793 42.1151 15.6034 41.815 15.462C40.6793 14.9268 39.3991 14.7663 38.1836 14.9689C36.9946 15.1677 35.8664 15.7143 34.9889 16.5973C34.5559 17.037 34.0849 17.683 33.7506 18.4322C33.4847 19.0248 33.31 19.6861 33.31 20.3589ZM6.47662 15.5958C6.00559 15.1218 6.00559 14.3534 6.47662 13.8794C6.94765 13.4092 7.71117 13.4092 8.18219 13.8794L12.6949 18.4208L21.1392 9.92291C21.6103 9.44889 22.3738 9.44889 22.8448 9.92291C23.3158 10.3969 23.3158 11.1653 22.8448 11.6393L13.5496 20.9973C13.0786 21.4713 12.3151 21.4713 11.8441 20.9973L6.47662 15.5958ZM46.3544 43.1422C46.3544 41.5558 46.3582 39.9732 46.3544 38.3867C46.3544 35.535 46.7076 36.4907 48.7741 35.9631C51.2508 35.3324 52.7892 33.1343 52.7892 30.3973V18.394C52.7892 15.0339 50.4037 12.6294 47.5623 12.6294H29.9406C28.2464 12.6294 27.0689 13.4436 26.1952 14.319C25.2873 15.2326 24.7137 16.6012 24.7137 18.394V30.1947C24.7137 32.106 25.2189 33.4096 26.142 34.4188C28.3566 36.8347 31.3043 36.1619 34.7952 36.1619C36.2045 36.1619 38.7458 36.0893 39.1788 36.204C40.0259 36.4257 45.2984 42.4311 46.3544 43.1422ZM55 18.5966V30.1947C55 34.6787 52.5347 37.3546 48.569 38.2873L48.5728 45.5734C48.5652 46.013 48.5158 46.2538 48.3107 46.5253C47.7219 47.2898 47.0343 47.0299 46.4797 46.4565L39.1446 39.071C38.2292 38.1459 38.628 38.3867 36.5046 38.3867H33.0858C29.1505 38.3867 26.5409 38.7766 24.0072 35.2521C23.0613 33.9371 22.4991 32.4615 22.4991 30.1947V18.5966C22.4991 17.3351 22.6739 16.2227 23.0309 15.2862C24.0832 12.5071 26.8789 10.4007 29.9406 10.4007H47.4636C51.9193 10.4007 55 13.9559 55 18.5966ZM36.8541 32.4577C36.8541 34.8622 40.0107 34.8622 40.0107 32.4577C40.0107 31.7391 39.327 31.0701 38.2368 31.0701C37.6176 31.0701 36.8541 31.8384 36.8541 32.4577ZM8.37972 30.3514C8.37972 28.765 8.37592 29.4378 8.37972 27.8514C8.37972 24.9996 8.02645 25.9553 5.96001 25.4278C3.48332 24.797 2.21079 22.8666 2.21079 20.1295V10.6874C2.21079 7.3273 4.33041 5.22481 7.17177 5.22481H22.0965C23.7907 5.22481 24.5504 5.73705 25.4279 6.61245C25.6368 6.82652 25.8343 7.06353 26.0052 7.3273C26.3699 7.88923 27.0347 8.76081 27.8894 8.38236C28.3148 8.19123 28.6681 7.614 28.2084 6.72713C27.0233 4.43734 24.8353 3 22.0965 3H7.27053C2.81477 3 0 6.24929 0 10.8901V19.9269C0 24.4109 2.19939 26.8192 6.16514 27.752L6.16134 32.7827C6.16893 33.2223 6.21832 33.4593 6.42344 33.7307C7.01222 34.499 7.69977 34.2391 8.25437 33.6657L13.0824 28.5356C13.9979 27.6105 13.599 27.8514 15.7224 27.8514H18.8981C19.9731 27.8514 20.5467 27.2589 20.5467 26.7237C20.5467 26.1464 20.2314 25.6266 18.8373 25.6266C17.428 25.6266 13.4812 25.5539 13.0482 25.6686C12.2011 25.8903 9.43573 29.6366 8.37972 30.3514Z" fill="#3EB16C"></path> </svg> 