<?xml version="1.0" encoding="UTF-8"?> <svg xmlns="http://www.w3.org/2000/svg" width="20" height="20" viewBox="0 0 20 20" fill="none"> <path d="M1.6665 4.1665L7.42736 7.43702C9.53205 8.63189 10.4676 8.63189 12.5723 7.43702L18.3332 4.1665" stroke="#3EB16C" stroke-width="1.5" stroke-linejoin="round"></path> <path d="M8.74984 16.2499C8.36125 16.2448 7.97219 16.2374 7.58219 16.2276C4.95845 16.1616 3.64657 16.1287 2.70397 15.1819C1.76136 14.2352 1.73412 12.9571 1.67964 10.4011C1.66212 9.57918 1.66212 8.76215 1.67964 7.94027C1.73412 5.38419 1.76136 4.10615 2.70396 3.15941C3.64657 2.21267 4.95844 2.17969 7.58219 2.11374C9.19926 2.07309 10.8004 2.07309 12.4175 2.11374C15.0412 2.1797 16.3531 2.21269 17.2957 3.15942C18.2383 4.10616 18.2656 5.3842 18.32 7.94029C18.3281 8.31868 18.3325 8.497 18.3331 8.74992" stroke="#3EB16C" stroke-width="1.5" stroke-linecap="round" stroke-linejoin="round"></path> <path d="M15.833 14.1665C15.833 14.8569 15.2734 15.4165 14.583 15.4165C13.8927 15.4165 13.333 14.8569 13.333 14.1665C13.333 13.4761 13.8927 12.9165 14.583 12.9165C15.2734 12.9165 15.833 13.4761 15.833 14.1665ZM15.833 14.1665V14.5832C15.833 15.2735 16.3927 15.8332 17.083 15.8332C17.7734 15.8332 18.333 15.2735 18.333 14.5832V14.1665C18.333 12.0954 16.6541 10.4165 14.583 10.4165C12.5119 10.4165 10.833 12.0954 10.833 14.1665C10.833 16.2376 12.5119 17.9165 14.583 17.9165" stroke="#3EB16C" stroke-width="1.5" stroke-linecap="round" stroke-linejoin="round"></path> </svg> 