<?xml version="1.0" encoding="UTF-8"?> <svg xmlns="http://www.w3.org/2000/svg" width="56" height="50" viewBox="0 0 56 50" fill="none"> <path fill-rule="evenodd" clip-rule="evenodd" d="M23.7717 40.8345C23.9189 41.0831 24.0586 41.3278 24.1681 41.5304L24.1756 41.5495L24.1982 41.5457C24.621 41.4463 26.3157 40.4101 27.984 39.3892C29.5956 38.4027 31.1809 37.4315 31.5583 37.3436L31.5847 37.3359L31.581 37.313C31.5621 37.0683 31.4602 36.793 31.3205 36.5177C31.1809 36.2385 31.0035 35.9518 30.8412 35.6917H30.8374V35.6879C30.777 35.5885 30.7166 35.4929 30.6562 35.3935V35.3897L30.6223 35.3285C30.5845 35.2673 30.5317 35.1717 30.4939 35.1067L30.4449 35.0188C30.1731 34.5447 29.9655 34.0285 30.0033 33.5238C30.041 33.0114 30.3241 32.5181 31.0412 32.1014C32.0452 31.5164 33.1285 30.874 34.14 30.2737C36.0649 29.1304 37.737 28.1401 38.7938 27.5742L38.8165 27.5665L38.8089 27.5436C38.7561 27.341 38.6655 27.1842 38.556 27.0465C38.4428 26.9089 38.3032 26.7827 38.1635 26.6565C38.0729 26.5801 37.9823 26.4998 37.8993 26.4118L23.8095 12.207C23.7227 12.1191 23.6321 12.0312 23.5415 11.9394C22.7225 11.1326 21.8091 10.2302 21.8091 8.97226C21.8091 8.80402 21.8279 8.63196 21.8619 8.46372C21.8996 8.28018 21.9525 8.10047 22.0166 7.93223C22.0884 7.74105 22.1752 7.56134 22.2658 7.39692C22.3677 7.21721 22.4734 7.05662 22.579 6.93044C22.6809 6.80426 22.813 6.67808 22.964 6.55955C23.1074 6.45249 23.2697 6.34925 23.4471 6.26513C24.1605 5.91718 24.855 5.88277 25.5004 6.05866C26.2402 6.26513 26.9158 6.75456 27.4895 7.37398C27.5763 7.46957 27.6707 7.57281 27.8028 7.71046C27.916 7.82899 28.033 7.95135 28.1538 8.07753L30.6298 10.5858L35.5856 15.6024L40.6055 20.6878L43.0815 23.1961C43.1306 23.2497 43.1872 23.3032 43.2514 23.3644C43.3118 23.4256 43.3759 23.4867 43.4401 23.5479L43.4439 23.5517C44.1535 24.2285 45.048 25.0812 45.048 26.1939C45.048 26.6603 44.9801 27.0962 44.8593 27.4863C44.7309 27.8839 44.546 28.2357 44.3044 28.5263C44.0704 28.813 43.7836 29.0386 43.4552 29.1916C43.1382 29.3407 42.7834 29.421 42.3984 29.421C41.3982 29.421 41.032 29.2757 40.8094 29.1916L40.8056 29.1878C40.7339 29.161 40.6735 29.1381 40.6206 29.1266C40.5678 29.1189 40.5149 29.1189 40.4432 29.1342C40.2319 29.1839 39.896 29.3904 39.0392 29.9219H39.0354L39.0241 29.9295C38.8089 30.0634 38.5636 30.2125 38.2579 30.3999C37.8729 30.6369 37.4803 30.8625 37.0954 31.0881H37.0916C36.7557 31.2831 36.4197 31.4781 36.1065 31.6693C35.7819 31.8643 35.4648 32.0631 35.1515 32.2734L35.1364 32.2849L35.1402 32.304C35.2421 32.6826 35.7064 33.4358 36.2386 34.2999L36.2423 34.3038C36.6575 34.9767 37.118 35.7223 37.4728 36.3991C37.8314 37.0835 38.0842 37.7068 38.0842 38.1274C38.0842 38.2956 38.0578 38.4792 38.0088 38.6627C37.9597 38.8615 37.8842 39.0642 37.7936 39.2554C37.6993 39.458 37.5898 39.6492 37.4728 39.8136C37.3558 39.9819 37.235 40.1233 37.118 40.2189L37.1104 40.2227L37.1029 40.2266L31.3998 43.6564H31.396C31.0676 43.859 30.7393 44.0578 30.4147 44.2528C30.1467 44.4096 29.807 44.6123 29.4635 44.8187H29.4598C28.8143 45.2049 28.1689 45.5873 27.531 45.9773C27.4103 46.05 27.2404 46.1608 27.0441 46.2832L27.0328 46.2908L27.029 46.2947C26.0024 46.9447 24.3379 48 23.5226 48C23.3113 48 23.1037 48 22.9036 47.9809C22.7036 47.9656 22.5073 47.935 22.3186 47.8776C22.1299 47.8165 21.9487 47.7323 21.7675 47.6062C21.5939 47.48 21.4203 47.3117 21.2467 47.0938L21.2429 47.0862L21.2391 47.0823L18.4574 42.3181L18.4498 42.299L18.4272 42.3066C18.1894 42.3716 17.9026 42.5093 17.5817 42.7005C17.2534 42.8878 16.8872 43.1287 16.4909 43.3887L16.4872 43.3925C14.9208 44.4211 12.8939 45.7479 11.0369 45.4726C10.6746 45.4191 10.3274 45.3502 9.99898 45.2623C9.66684 45.1743 9.35734 45.0673 9.05916 44.9296C8.76476 44.792 8.48168 44.6276 8.2137 44.4249C7.94571 44.2261 7.68905 43.9852 7.44372 43.7061C6.80585 42.9681 6.40954 42.2493 6.19439 41.5419C5.98303 40.8345 5.95661 40.1463 6.05474 39.4733C6.15288 38.8004 6.37934 38.1389 6.66997 37.4965C6.9606 36.8541 7.31162 36.2309 7.67396 35.6229L20.4314 13.7365C20.4767 13.66 20.522 13.5912 20.5748 13.5262C20.7485 13.3121 20.9636 13.1744 21.1863 13.1171C21.4127 13.0597 21.6468 13.0903 21.8506 13.2088C21.8959 13.2356 21.9374 13.2662 21.9789 13.3006C22.2469 13.5224 22.3677 13.8091 22.3828 14.1112C22.4054 14.463 22.2846 14.8377 22.1035 15.1512C20.3899 18.0993 18.7027 20.9976 17.0156 23.892C15.3284 26.7865 13.645 29.6848 11.9277 32.629L11.8635 32.7437V32.7399C11.7088 32.9999 11.5503 33.2714 11.388 33.5467C11.169 33.9214 11.0105 34.1967 10.852 34.472C10.6784 34.7703 10.5048 35.0647 10.4066 35.2367C10.2594 35.4853 10.1084 35.7453 9.93482 36.0359C9.82914 36.2156 9.72723 36.3838 9.62909 36.5444C9.52718 36.7165 9.44037 36.858 9.35734 36.988C8.96857 37.615 8.68549 38.07 8.50432 38.5556C8.31938 39.0336 8.23257 39.5498 8.23257 40.2992C8.23257 40.6892 8.32693 41.0639 8.493 41.4081C8.6704 41.7751 8.92706 42.1078 9.2441 42.3869C9.56493 42.6775 9.94614 42.9108 10.3576 43.0675C10.7539 43.2243 11.1804 43.3084 11.6069 43.3084C12.0824 43.3084 12.5844 43.144 13.0713 42.9069C13.5696 42.666 14.0527 42.3563 14.4943 42.0734H14.4981C14.7811 41.8898 15.0453 41.7216 15.2794 41.5916L15.2831 41.5878L22.0204 37.5653H22.0242C22.4356 37.3168 22.9263 37.0186 23.4736 36.6859L23.6434 36.5827C23.968 36.3838 24.2926 36.185 24.6285 35.9785C25.24 35.6076 25.8816 35.2176 26.6139 34.7741L26.6176 34.7703C26.8856 34.6135 27.1951 34.537 27.482 34.5867C27.7349 34.6288 27.9726 34.7703 28.1425 35.0456C28.1538 35.0647 28.1651 35.0838 28.1802 35.1067C28.3652 35.4356 28.4029 35.7453 28.3237 36.0206C28.2482 36.2921 28.0557 36.5291 27.7877 36.6974V36.7012C27.7764 36.7088 27.7575 36.7203 27.7311 36.7356L23.1074 39.4618L23.0886 39.4695L23.0924 39.4924C23.1263 39.6377 23.2207 39.8442 23.3452 40.0774C23.466 40.3107 23.6208 40.5745 23.7717 40.8345ZM37.4728 12.4288V12.3638V12.3218L37.4879 12.3026C37.5558 12.1573 37.82 11.84 38.1937 11.4232C38.6844 10.8841 39.3638 10.1729 40.0583 9.46933C40.7565 8.76196 41.4623 8.06606 41.9983 7.56899C42.4814 7.12162 42.8362 6.83103 42.9343 6.83103C43.1004 6.83103 43.2665 6.83868 43.4212 6.86926C43.5798 6.89603 43.727 6.94574 43.8477 7.02221C43.9685 7.09868 44.0704 7.20574 44.1384 7.35104C44.2063 7.49252 44.244 7.6684 44.244 7.88635C44.244 8.49431 43.0513 9.63375 42.1757 10.4711H42.1719L42.1681 10.4749C41.9681 10.6661 41.7831 10.842 41.6359 10.9911L41.6095 11.0217C41.5303 11.0982 41.4472 11.1861 41.3529 11.2856C41.2623 11.3811 41.1679 11.4844 41.066 11.5914C40.6584 12.0312 40.179 12.5473 39.7261 12.9603C39.2581 13.3809 38.8202 13.6906 38.5145 13.6906C37.4652 13.6906 37.469 12.8877 37.4728 12.4288ZM46.32 16.2295C45.2594 16.5927 43.04 17.3536 42.3984 17.3536C42.3078 17.3536 42.2172 17.3307 42.1304 17.2886C42.0474 17.2466 41.9643 17.1854 41.8926 17.1089C41.8435 17.0592 41.7982 17.0057 41.7605 16.9407C41.719 16.8795 41.685 16.8145 41.6586 16.7495C41.6284 16.6769 41.6058 16.6042 41.5907 16.5277C41.5756 16.4551 41.568 16.3786 41.568 16.3021C41.568 16.1645 41.5944 16.023 41.6548 15.8815C41.7077 15.7554 41.7869 15.6368 41.9002 15.5221C41.987 15.438 42.2663 15.3042 42.6739 15.1398C43.1344 14.9524 43.7572 14.7268 44.429 14.4936C45.3499 14.1686 46.3728 13.8359 47.2107 13.5721C48.1505 13.2738 48.8601 13.0674 48.9583 13.0674C49.181 13.0674 49.4414 13.2165 49.649 13.4268C49.7509 13.53 49.8415 13.6486 49.9019 13.7709C49.9623 13.8894 50 14.0118 50 14.1265C50 14.6312 49.6792 14.9754 49.1923 15.243C48.7318 15.4954 48.1204 15.6751 47.5089 15.8548C47.373 15.893 47.2409 15.9313 47.0786 15.981C46.9276 16.0268 46.788 16.0727 46.6559 16.1148C46.5691 16.1454 46.4709 16.176 46.369 16.2142L46.32 16.2295ZM35.763 8.9952C35.5214 9.33933 35.1931 9.48462 34.6344 9.48462C34.559 9.48462 34.4797 9.46551 34.408 9.42727C34.3287 9.38521 34.257 9.33168 34.1853 9.26285C34.1023 9.18638 34.0305 9.09461 33.9702 9.00285C33.9022 8.90726 33.8531 8.80784 33.8267 8.71608C33.7475 8.47901 33.8607 7.93988 34.0381 7.34339C34.2079 6.76603 34.4382 6.12366 34.6042 5.661V5.65718C34.676 5.45452 34.7364 5.28246 34.7741 5.16775L35.0685 4.28067L35.3138 3.53506C35.3969 3.27888 35.4837 3.01505 35.578 2.72445C35.6007 2.65945 35.6196 2.59828 35.6384 2.5371C35.6611 2.45298 35.6762 2.39945 35.6913 2.34592C35.7856 2.01326 35.88 1.68825 36.0536 1.43589C36.231 1.17206 36.4914 1 36.9104 1C37.2916 1 37.5521 1.11471 37.7181 1.31354C37.8804 1.51237 37.9484 1.78767 37.9484 2.10885C37.9484 2.98829 37.4803 4.22714 37.0878 5.25569V5.25952C36.9519 5.61894 36.8236 5.95159 36.733 6.23454C36.6537 6.46778 36.5858 6.68955 36.5216 6.89603C36.465 7.07956 36.4084 7.27839 36.3556 7.46193C36.1442 8.17694 35.997 8.67019 35.763 8.9952ZM32.4076 33.8641L32.3434 33.8985L32.3207 33.9138L32.3321 33.9367C32.5585 34.365 32.7661 34.7473 32.9586 35.0914C33.1549 35.4356 33.3285 35.73 33.4795 35.9862C33.7286 36.4182 33.9249 36.7509 34.057 37.0224C34.1928 37.3091 34.2608 37.5271 34.2457 37.7221C34.2079 38.1886 33.6795 38.5059 32.4868 39.2248L32.4793 39.2286L32.4755 39.2324C32.3056 39.3318 32.1207 39.4427 31.9131 39.5689C31.664 39.7219 31.4338 39.8595 31.2148 39.9895C31.0412 40.0927 30.7959 40.2419 30.5392 40.391C30.3241 40.521 30.1052 40.651 29.8863 40.781C29.6749 40.9072 29.456 41.041 29.222 41.1825C29.1125 41.2475 28.9427 41.3507 28.7351 41.4807L28.72 41.4884C28.0519 41.9013 26.9611 42.5781 25.9722 43.1516C24.972 43.729 24.0699 44.2031 23.7906 44.2031C23.6434 44.2031 23.4811 44.1114 23.3075 43.9546C23.1263 43.7864 22.9263 43.5455 22.73 43.274C22.4658 42.9031 22.2016 42.4749 21.9751 42.0772C21.5788 41.3775 21.2882 40.7619 21.2731 40.6969L21.2655 40.6701L21.2391 40.6778C21.0693 40.7198 20.9296 40.7657 20.8051 40.8231C20.6767 40.8804 20.556 40.9454 20.4239 41.0181C20.3823 41.041 20.3408 41.0639 20.2955 41.0869L20.2729 41.0984L20.2842 41.1251C20.4012 41.3469 20.5107 41.5534 20.6201 41.7522C20.7296 41.9472 20.839 42.146 20.9523 42.341C21.058 42.5322 21.1712 42.7272 21.2882 42.926C21.4165 43.1402 21.5298 43.339 21.6505 43.5417C21.6996 43.6219 21.7487 43.7099 21.8015 43.8017C21.8279 43.8514 21.8959 43.9775 21.9676 44.1076C22.1412 44.4249 22.3375 44.7843 22.5375 45.1093C22.7338 45.4305 22.9263 45.7135 23.0999 45.8779L23.1112 45.8855H23.1225C23.5641 45.8473 24.2322 45.4305 24.6738 45.1552V45.1514L24.6851 45.1438L24.7418 45.1093L24.8512 45.0443L29.5579 42.2301L29.5541 42.2263L29.6522 42.1728C30.0712 41.9396 30.4147 41.7254 30.7921 41.4922L30.8034 41.4845C30.9393 41.4004 31.079 41.3125 31.2413 41.2131C31.5394 41.0295 31.7999 40.8804 32.0603 40.7275H32.0641C32.1849 40.6548 32.3094 40.586 32.4491 40.5019C32.5585 40.4369 32.6755 40.368 32.7963 40.2954L32.8492 40.2648C33.1473 40.0813 33.4191 39.9207 33.6644 39.7792C33.9098 39.6377 34.1362 39.5077 34.3438 39.3892C34.7892 39.1368 35.1289 38.9418 35.3705 38.7698C35.6007 38.6054 35.7441 38.4639 35.8045 38.3071C35.8687 38.1312 35.8423 37.9477 35.7366 37.7068C35.6233 37.443 35.4195 37.118 35.1478 36.6744H35.144C34.9855 36.4182 34.8005 36.1162 34.5816 35.7491C34.4721 35.5694 34.3627 35.382 34.2457 35.1794C34.1287 34.9806 34.023 34.7932 33.9286 34.625C33.823 34.4414 33.7248 34.2579 33.6191 34.0705C33.521 33.887 33.4191 33.6996 33.3172 33.5046L33.3096 33.4855L33.287 33.4893C33.1171 33.5314 32.9775 33.5811 32.8529 33.6346C32.7246 33.692 32.6038 33.7608 32.4717 33.8296L32.4076 33.8641ZM25.9194 8.83843C25.6136 8.49813 25.2853 8.13106 24.7267 8.13106C24.5417 8.13106 24.3983 8.18459 24.2926 8.26871C24.2096 8.33754 24.153 8.42166 24.1114 8.52107C24.0699 8.62048 24.051 8.73902 24.051 8.86137C24.051 9.1252 24.1492 9.41962 24.3417 9.66051C24.5342 9.9014 24.7908 10.1729 25.0588 10.4367C25.323 10.6967 25.5985 10.9529 25.8212 11.1632C25.9043 11.2397 25.9798 11.3123 26.0515 11.3773C26.1194 11.4423 26.1723 11.492 26.2138 11.5341L26.2855 11.6067L39.7337 25.2303C39.7714 25.2685 39.8205 25.3183 39.8771 25.3794C39.9299 25.4406 39.9865 25.5018 40.0507 25.5706C40.3489 25.8918 40.7565 26.3353 41.149 26.6909C41.5303 27.0389 41.8964 27.3065 42.1304 27.3065C42.221 27.3065 42.3002 27.2951 42.3757 27.276C42.4512 27.253 42.5154 27.2224 42.5758 27.1804V27.1842C42.6286 27.1459 42.6777 27.1039 42.7154 27.0542C42.7569 27.0045 42.7909 26.9471 42.8211 26.8898C42.8475 26.8286 42.8664 26.7674 42.8777 26.7062C42.8928 26.6412 42.8966 26.5724 42.8966 26.5036C42.8966 26.3965 42.8815 26.2856 42.8513 26.1824C42.8211 26.0792 42.7758 25.9797 42.7154 25.888L42.7116 25.8842L26.1194 9.05255C26.0854 9.02197 26.0515 8.98373 26.0213 8.94932C25.9873 8.91108 25.9533 8.87667 25.9231 8.84226L25.9194 8.83843Z" fill="#3EB16C"></path> </svg> 