<?xml version="1.0" encoding="UTF-8"?> <svg xmlns="http://www.w3.org/2000/svg" width="56" height="50" viewBox="0 0 56 50" fill="none"> <path d="M14.6762 7H40.32C42.7089 7 44.8789 7.98267 46.4526 9.56481C48.0263 11.1432 49 13.3248 49 15.7264V35.2736C49 37.6715 48.0263 39.8531 46.4526 41.4352C44.8789 43.0173 42.7089 44 40.32 44H14.6762C12.2911 44 10.1211 43.0173 8.54739 41.4352C6.97367 39.8531 6 37.6715 6 35.2736V15.7264C6 13.3248 6.97367 11.1432 8.54739 9.56481C10.1211 7.98267 12.2911 7 14.6762 7ZM28.4473 17.4945C27.4132 17.4945 25.7904 17.3465 25.7904 15.9047C25.7904 14.7324 27.3189 13.7345 28.5303 13.7345H29.0284C29.9644 13.7345 31.1079 14.4212 31.1079 15.3204C31.1079 16.5042 29.6474 17.4945 28.4473 17.4945ZM23.711 15.6543C23.711 17.0543 24.0204 17.779 25.1036 18.682C26.4093 19.7671 28.402 19.8468 29.9946 19.3005C30.5682 19.1032 31.0965 18.8034 31.523 18.4961C32.4891 17.8018 33.1835 16.6901 33.1835 15.1535C33.1835 13.2716 31.1116 11.6478 29.1945 11.6478C27.4283 11.6478 26.6999 11.773 25.2545 12.8619C24.5979 13.3551 23.711 14.5578 23.711 15.6543ZM24.6167 23.5992C27.1603 21.888 30.1002 22.571 30.1002 25.519C30.1002 26.2588 29.9115 26.8811 29.7908 27.4615C29.6436 28.1445 29.5455 28.706 29.387 29.3927C29.0209 30.9825 28.4435 33.3272 29.0322 35.0308C29.3039 35.8161 29.5794 35.892 29.6851 36.2942C28.4737 37.1099 28.1076 37.2124 26.6962 37.2124C26.0961 37.2124 25.4055 36.905 24.9979 36.4953C23.8544 35.3457 24.2129 33.8546 24.4884 32.4849C24.9262 30.2806 25.9338 26.513 25.1904 24.5249C25.0281 24.0886 24.8469 23.9444 24.6167 23.5992ZM22.209 23.7661C22.209 24.2783 22.4807 24.5249 22.8166 24.8247C23.7789 25.6783 23.3298 27.325 23.0996 28.6719L22.3977 32.3066C21.858 35.1029 21.9486 37.5007 24.9753 38.9387C28.2057 40.4715 33.0024 37.459 31.9872 35.4823C31.406 34.3478 30.2323 35.4823 31.3267 30.3413C31.6777 28.7022 32.1797 26.8886 32.1797 25.1851C32.1797 23.3791 31.0852 21.8046 29.5492 21.0609C27.8019 20.2186 25.4696 20.5335 23.9186 21.5579C23.5412 21.8083 23.1374 22.0815 22.8543 22.4078C22.5713 22.7303 22.209 23.197 22.209 23.7661ZM40.32 9.27646H14.6762C12.9138 9.27646 11.3099 10.0011 10.1475 11.1735C8.98517 12.3421 8.26058 13.9546 8.26058 15.7264V35.2736C8.26058 37.0454 8.98517 38.6579 10.1475 39.8265C11.3099 40.9951 12.9138 41.7235 14.6762 41.7235H40.32C42.0862 41.7235 43.6901 40.9951 44.8525 39.8265C46.0148 38.6579 46.7394 37.0454 46.7394 35.2736V15.7264C46.7394 13.9546 46.0148 12.3421 44.8525 11.1735C43.6901 10.0011 42.0862 9.27646 40.32 9.27646Z" fill="#3EB16C"></path> </svg> 