<?xml version="1.0" encoding="UTF-8"?> <svg xmlns="http://www.w3.org/2000/svg" width="56" height="50" viewBox="0 0 56 50" fill="none"> <path fill-rule="evenodd" clip-rule="evenodd" d="M11.5662 35.684C11.5662 34.1048 11.5662 32.5218 11.5662 30.9426C11.5662 28.0969 11.2162 29.0506 9.16875 28.5241C6.7148 27.8948 5.19049 25.7014 5.19049 22.9664V12.9723C5.19049 9.61938 7.55411 7.22005 10.3694 7.22005H38.2586C39.9335 7.22005 41.1002 8.03254 41.9697 8.90988C42.8692 9.81774 43.4375 11.1872 43.4375 12.9723V22.7642C43.4375 24.6715 42.9369 25.9722 42.0186 26.9831C39.8243 29.39 36.038 28.7225 32.5792 28.7225C31.1828 28.7225 19.105 28.6462 18.6759 28.7607C17.8366 28.9857 12.6126 34.9745 11.5662 35.684ZM12.9588 20.0407H12.462C11.4759 20.0407 10.5689 19.1175 10.5689 18.122C10.5689 17.1569 10.8662 16.3291 11.9238 15.9629C13.6325 15.3679 15.1794 16.9356 14.5923 18.6674C14.3928 19.2625 13.6514 20.0407 12.9588 20.0407ZM8.37837 17.6184V18.122C8.37837 20.3267 10.2791 22.2607 12.462 22.2607C13.9675 22.2607 14.7842 21.9136 15.7741 20.876C17.3774 19.1938 17.3248 16.3863 15.3827 14.6584L14.4229 14.0137C13.3013 13.4797 12.1534 13.4835 11.0205 13.9374C9.68438 14.4715 8.37837 16.0087 8.37837 17.6184ZM22.2214 18.0228C22.2214 15.1123 26.4066 15.1085 26.4066 18.0228C26.4066 20.6891 22.2214 20.6891 22.2214 18.0228ZM20.0309 17.9198C20.0309 19.6668 20.9831 21.0401 22.3606 21.8144C23.8586 22.6574 26.0265 22.3713 27.3927 20.9409C30.6822 17.4887 26.7642 12.1065 22.6203 13.9832C21.0584 14.6927 20.0309 16.1537 20.0309 17.9198ZM38.0591 17.6184V18.122C38.0591 19.232 37.1634 20.0407 35.8649 20.0407C32.8953 20.0407 33.5502 15.0207 36.6252 15.94C37.4381 16.1804 38.0591 17.0196 38.0591 17.6184ZM31.6834 17.9198C31.6834 20.0178 33.4862 22.2607 35.6692 22.2607C37.0505 22.2607 38.093 22.0166 39.0829 20.979C41.0965 18.8582 40.4416 15.1543 37.7468 13.9946C34.5363 12.6062 31.6834 15.2458 31.6834 17.9198ZM43.4375 42.1458C43.0273 41.8673 38.8081 37.5035 38.0817 36.7711C37.6527 36.3325 36.7682 35.1805 36.0644 35.1805H21.0283C19.9067 35.1805 19.504 37.0839 21.0621 37.3662C21.638 37.4692 22.5036 37.4005 23.1171 37.4005L34.875 37.3967C35.9364 37.3853 35.6353 37.4196 36.8359 38.6364L43.2117 45.0982C43.4789 45.3691 44.4198 46.6546 45.3269 45.5751C45.8162 44.9953 45.628 43.1834 45.628 42.245C45.628 40.5971 45.628 38.9492 45.628 37.3014C49.5724 36.3706 52 33.6738 52 29.226V19.4341C52 18.6484 51.6312 17.9198 51.0064 17.9198C49.531 17.9198 49.8095 19.2129 49.8095 20.6472V28.6195C49.8095 30.111 49.7418 31.0532 49.2713 32.1098C48.6729 33.4563 47.4911 34.4252 46.1399 34.8906C44.9054 35.3178 43.6031 34.8486 43.445 36.096L43.4375 42.1458ZM3 13.1745V22.7642C3 27.2387 5.44266 29.9126 9.37576 30.8396L9.36823 38.1139C9.37576 38.5487 9.42469 38.789 9.63169 39.0599C10.2113 39.8266 10.8925 39.5634 11.442 38.9912L18.7098 31.6215C19.6169 30.7022 19.2254 30.9426 21.3256 30.9426H34.2728C38.1721 30.9426 41.6234 31.3278 44.1338 27.8146C45.071 26.4986 45.628 25.0262 45.628 22.7642V13.1745C45.628 11.9157 45.4549 10.8095 45.1011 9.87114C44.0585 7.09799 41.2884 5 38.2586 5H10.471C6.05239 5 3 8.5475 3 13.1745Z" fill="#3EB16C"></path> </svg> 