<?xml version="1.0" encoding="UTF-8"?> <svg xmlns="http://www.w3.org/2000/svg" width="20" height="20" viewBox="0 0 20 20" fill="none"><path d="M2.0835 10.0002C2.0835 6.26821 2.0835 4.40223 3.24287 3.24287C4.40223 2.0835 6.26821 2.0835 10.0002 2.0835C13.7321 2.0835 15.5981 2.0835 16.7575 3.24287C17.9168 4.40223 17.9168 6.26821 17.9168 10.0002C17.9168 13.7321 17.9168 15.5981 16.7575 16.7575C15.5981 17.9168 13.7321 17.9168 10.0002 17.9168C6.26821 17.9168 4.40223 17.9168 3.24287 16.7575C2.0835 15.5981 2.0835 13.7321 2.0835 10.0002Z" stroke="#3EB16C" stroke-width="1.5" stroke-linejoin="round"></path><path d="M13.75 10C13.75 12.0711 12.0711 13.75 10 13.75C7.92893 13.75 6.25 12.0711 6.25 10C6.25 7.92893 7.92893 6.25 10 6.25C12.0711 6.25 13.75 7.92893 13.75 10Z" stroke="#3EB16C" stroke-width="1.5"></path><path d="M14.5898 5.41675L14.5824 5.41675" stroke="#3EB16C" stroke-width="2" stroke-linecap="round" stroke-linejoin="round"></path></svg> 