<?xml version="1.0" encoding="UTF-8"?> <svg xmlns="http://www.w3.org/2000/svg" width="22" height="22" viewBox="0 0 22 22" fill="none"><path d="M5.9 19.6L6.36305 18.8283C6.14944 18.7001 5.89227 18.6662 5.65275 18.7346L5.9 19.6ZM2.3 16L3.17104 16.2265C3.22789 16.0078 3.20043 15.7758 3.09412 15.5765L2.3 16ZM1.44044 19.306L2.31148 19.5325L2.31148 19.5325L1.44044 19.306ZM2.68299 20.5191L2.43574 19.6538L2.43574 19.6538L2.68299 20.5191ZM15.5343 15.642L16.2281 16.2152L16.2285 16.2148L15.5343 15.642ZM14.7131 16.291L14.3436 15.4703L14.3385 15.4726L14.7131 16.291ZM10.3816 15.0095L9.81837 15.7115L9.81949 15.7124L10.3816 15.0095ZM8.73911 13.4695L8.07068 14.0722L8.07654 14.0786L8.73911 13.4695ZM7.34201 11.671L6.58909 12.1641L6.59186 12.1683L7.34201 11.671ZM6.36054 9.7955L5.52017 10.1177L5.52113 10.1201L6.36054 9.7955ZM6.18027 6.9355L7.02595 7.24348L7.02755 7.23901L6.18027 6.9355ZM6.75613 6.017L7.40374 6.64199L7.41037 6.63512L7.41685 6.62811L6.75613 6.017ZM8.20331 5.599L7.78358 6.39513L7.78995 6.39849L7.79637 6.40175L8.20331 5.599ZM8.53881 5.907L7.77739 6.38694L7.78281 6.39534L8.53881 5.907ZM9.70055 7.7055L8.94454 8.19385L8.94786 8.19891L9.70055 7.7055ZM9.90085 8.0905L9.05735 8.40467L9.06242 8.41765L9.90085 8.0905ZM9.8658 8.8165L9.0786 8.38024L9.07188 8.39236L9.06554 8.40468L9.8658 8.8165ZM9.58538 9.207L8.91988 8.6011L8.91406 8.6075L8.90835 8.61401L9.58538 9.207ZM9.20481 9.6415L9.8703 10.2474L9.87613 10.241L9.88183 10.2345L9.20481 9.6415ZM9.13971 9.988L8.26215 10.1877L8.27267 10.234L8.28798 10.2788L9.13971 9.988ZM9.17977 10.098L8.31856 10.3594L8.34034 10.4311L8.3737 10.4983L9.17977 10.098ZM9.64547 10.802L8.93246 11.3513L8.93853 11.359L9.64547 10.802ZM10.3716 11.671L9.70035 12.2706L9.70599 12.2769L9.71174 12.2831L10.3716 11.671ZM11.1678 12.4795L10.5539 13.1377L10.5551 13.1388L11.1678 12.4795ZM11.8137 12.9855L11.3613 13.7635L11.4052 13.7891L11.4517 13.8095L11.8137 12.9855ZM11.9039 13.0295L11.5206 13.8438L11.5406 13.8532L11.5611 13.8617L11.9039 13.0295ZM12.2344 12.958L11.5729 12.3477L11.5689 12.3521L12.2344 12.958ZM12.6149 12.5455L13.2764 13.1558L13.2804 13.1514L12.6149 12.5455ZM12.9755 12.2375L13.4229 13.0184L13.4499 13.0029L13.4757 12.9857L12.9755 12.2375ZM13.987 12.408L14.5404 11.6983L14.533 11.6925L14.5255 11.6869L13.987 12.408ZM15.6445 13.7005L15.091 14.4103L15.0997 14.4169L15.6445 13.7005ZM15.9199 14.0525L16.7655 13.7445L16.7607 13.7311L16.7553 13.7178L15.9199 14.0525ZM5.43695 20.3717C7.07843 21.3566 9.03876 21.9 11 21.9V20.1C9.36124 20.1 7.72157 19.6434 6.36305 18.8283L5.43695 20.3717ZM11 21.9C16.9971 21.9 21.9 16.9971 21.9 11H20.1C20.1 16.0029 16.0029 20.1 11 20.1V21.9ZM21.9 11C21.9 5.00294 16.9971 0.1 11 0.1V1.9C16.0029 1.9 20.1 5.99706 20.1 11H21.9ZM11 0.1C5.00294 0.1 0.1 5.00294 0.1 11H1.9C1.9 5.99706 5.99706 1.9 11 1.9V0.1ZM0.1 11C0.1 12.9686 0.646894 14.8129 1.50588 16.4235L3.09412 15.5765C2.35311 14.1871 1.9 12.6314 1.9 11H0.1ZM1.42896 15.7735L0.569403 19.0795L2.31148 19.5325L3.17104 16.2265L1.42896 15.7735ZM2.93024 21.3845L6.14725 20.4654L5.65275 18.7346L2.43574 19.6538L2.93024 21.3845ZM0.569403 19.0795C0.199429 20.5025 1.51652 21.7884 2.93024 21.3845L2.43574 19.6538C2.41026 19.6611 2.39455 19.6591 2.38352 19.6561C2.36978 19.6523 2.35344 19.6438 2.33841 19.6292C2.32338 19.6145 2.31449 19.5984 2.31043 19.5847C2.30717 19.5738 2.30482 19.5581 2.31148 19.5325L0.569403 19.0795ZM15.1 14.4815C15.1 14.5573 15.0848 14.6399 15.048 14.7255L16.7016 15.4365C16.8351 15.1261 16.9 14.8017 16.9 14.4815H15.1ZM15.048 14.7255C14.9938 14.8516 14.9267 14.9642 14.8401 15.0692L16.2285 16.2148C16.4323 15.9678 16.5856 15.7064 16.7016 15.4365L15.048 14.7255ZM14.8405 15.0688C14.6685 15.2769 14.5044 15.3979 14.3436 15.4703L15.0825 17.1117C15.5326 16.9091 15.9093 16.6011 16.2281 16.2152L14.8405 15.0688ZM14.3385 15.4726C14.1583 15.5551 13.9608 15.6 13.7366 15.6V17.4C14.2134 17.4 14.667 17.3019 15.0876 17.1094L14.3385 15.4726ZM13.7366 15.6C13.3826 15.6 12.967 15.5086 12.4856 15.2834L11.7227 16.9137C12.3931 17.2274 13.069 17.4 13.7366 17.4V15.6ZM12.4856 15.2834C11.9819 15.0476 11.4661 14.7244 10.9437 14.3066L9.81949 15.7124C10.4388 16.2076 11.0746 16.6104 11.7227 16.9137L12.4856 15.2834ZM10.9448 14.3075C10.4056 13.8749 9.89286 13.3947 9.40168 12.8604L8.07654 14.0786C8.62692 14.6773 9.20581 15.2201 9.81837 15.7115L10.9448 14.3075ZM9.40751 12.8668C8.92085 12.3271 8.48261 11.7627 8.09217 11.1737L6.59186 12.1683C7.03267 12.8333 7.52582 13.4679 8.07071 14.0722L9.40751 12.8668ZM8.09493 11.1779C7.71317 10.595 7.41395 10.0242 7.19995 9.47086L5.52113 10.1201C5.78785 10.8098 6.14962 11.493 6.5891 12.1641L8.09493 11.1779ZM7.20091 9.47335C6.99324 8.93163 6.9 8.44152 6.9 7.997H5.1C5.1 8.69648 5.24712 9.40537 5.52017 10.1177L7.20091 9.47335ZM6.9 7.997C6.9 7.71956 6.94449 7.4671 7.02594 7.24348L5.3346 6.62752C5.17569 7.0639 5.1 7.52644 5.1 7.997H6.9ZM7.02755 7.23901C7.10366 7.02654 7.22474 6.82746 7.40374 6.64199L6.10853 5.39201C5.75673 5.75654 5.49724 6.17346 5.33299 6.63199L7.02755 7.23901ZM7.41685 6.62811C7.61055 6.41868 7.7357 6.4 7.7977 6.4V4.6C7.11858 4.6 6.54268 4.92232 6.09541 5.4059L7.41685 6.62811ZM7.7977 6.4C7.7974 6.4 7.79646 6.39999 7.79458 6.39953C7.79263 6.39906 7.78883 6.3979 7.78358 6.39513L8.62303 4.80287C8.36272 4.66562 8.07755 4.6 7.7977 4.6V6.4ZM7.79637 6.40175C7.79432 6.40071 7.78891 6.39751 7.78287 6.39206C7.78013 6.38958 7.77816 6.38745 7.77701 6.38607C7.77586 6.38471 7.77609 6.38478 7.77743 6.38691L9.30018 5.42709C9.12046 5.14196 8.88083 4.93342 8.61024 4.79625L7.79637 6.40175ZM7.78281 6.39534L8.94456 8.19384L10.4565 7.21716L9.2948 5.41866L7.78281 6.39534ZM8.94786 8.19891C9.00824 8.29102 9.03995 8.35763 9.05745 8.40463L10.7442 7.77637C10.6716 7.58136 10.5731 7.39498 10.4532 7.21209L8.94786 8.19891ZM9.06242 8.41765C9.06877 8.43393 9.0714 8.44441 9.07219 8.44815C9.07254 8.44982 9.07227 8.44896 9.0719 8.44561C9.07153 8.44228 9.07096 8.43568 9.07096 8.426H10.871C10.871 8.18439 10.8148 7.95676 10.7393 7.76335L9.06242 8.41765ZM9.07096 8.426C9.07096 8.41172 9.07293 8.39933 9.07542 8.39005C9.07786 8.38096 9.08003 8.37767 9.0786 8.38024L10.653 9.25276C10.7915 9.00284 10.871 8.72176 10.871 8.426H9.07096ZM9.06554 8.40468C9.04512 8.44438 9.00092 8.51209 8.91988 8.6011L10.2509 9.8129C10.4102 9.63791 10.5563 9.44162 10.6661 9.22832L9.06554 8.40468ZM8.90835 8.61401L8.52778 9.04851L9.88183 10.2345L10.2624 9.79999L8.90835 8.61401ZM8.53931 9.0356C8.31396 9.28311 8.22469 9.57994 8.22469 9.8615H10.0247C10.0247 9.90356 10.0185 9.96942 9.99069 10.0466C9.962 10.1261 9.91869 10.1943 9.8703 10.2474L8.53931 9.0356ZM8.22469 9.8615C8.22469 9.98303 8.2397 10.0891 8.26215 10.1877L10.0173 9.78826C10.0177 9.79035 10.02 9.80064 10.0219 9.81629C10.0239 9.83257 10.0247 9.84818 10.0247 9.8615H8.22469ZM8.28798 10.2788C8.30225 10.3206 8.31664 10.3573 8.32177 10.3706C8.32509 10.3792 8.32552 10.3805 8.32523 10.3797C8.32471 10.3782 8.32201 10.3707 8.31856 10.3594L10.041 9.83663C10.0252 9.78452 10.0075 9.73936 10.0015 9.72362C9.99283 9.70119 9.99219 9.69941 9.99144 9.6972L8.28798 10.2788ZM8.3737 10.4983C8.50157 10.7558 8.69695 11.0455 8.9325 11.3513L10.3584 10.2527C10.1533 9.9865 10.0382 9.8032 9.98584 9.69769L8.3737 10.4983ZM8.93853 11.359C9.17235 11.6558 9.42477 11.9621 9.70035 12.2706L11.0428 11.0714C10.7976 10.7969 10.5693 10.5202 10.3524 10.245L8.93853 11.359ZM9.71174 12.2831C9.98895 12.5819 10.2659 12.8691 10.5539 13.1377L11.7816 11.8213C11.5388 11.5949 11.295 11.3431 11.0314 11.0589L9.71174 12.2831ZM10.5551 13.1388C10.8407 13.4042 11.111 13.618 11.3613 13.7635L12.2661 12.2075C12.176 12.155 12.0156 12.0388 11.7804 11.8202L10.5551 13.1388ZM11.4517 13.8095C11.4435 13.8059 11.4387 13.8035 11.4395 13.8039C11.4405 13.8044 11.4429 13.8056 11.4504 13.8093C11.462 13.8152 11.49 13.8294 11.5206 13.8438L12.2872 12.2152C12.2827 12.2131 12.2781 12.2108 12.2597 12.2016C12.2521 12.1977 12.2402 12.1917 12.2273 12.1855C12.2144 12.1792 12.1965 12.1706 12.1757 12.1615L11.4517 13.8095ZM11.5611 13.8617C11.7417 13.936 11.9065 13.9515 12.029 13.9515V12.1515C12.0615 12.1515 12.1462 12.156 12.2466 12.1973L11.5611 13.8617ZM12.029 13.9515C12.395 13.9515 12.6936 13.7904 12.8998 13.5639L11.5689 12.3521C11.6061 12.3112 11.6691 12.2555 11.7616 12.2122C11.8566 12.1678 11.9506 12.1515 12.029 12.1515V13.9515ZM12.8958 13.5683L13.2764 13.1558L11.9534 11.9352L11.5729 12.3477L12.8958 13.5683ZM13.2804 13.1514C13.3236 13.104 13.3585 13.0705 13.385 13.0477C13.412 13.0246 13.4247 13.0174 13.4229 13.0184L12.528 11.4566C12.3005 11.587 12.108 11.7654 11.9494 11.9396L13.2804 13.1514ZM13.4757 12.9857C13.4753 12.9859 13.4594 12.9964 13.4293 13.0063C13.3977 13.0166 13.3634 13.022 13.331 13.022V11.222C13.0017 11.222 12.7152 11.3289 12.4753 11.4893L13.4757 12.9857ZM13.331 13.022C13.3081 13.022 13.2891 13.0192 13.2759 13.0162C13.2633 13.0133 13.2601 13.0111 13.2676 13.0144L14.0053 11.3726C13.797 11.279 13.5715 11.222 13.331 11.222V13.022ZM13.2676 13.0144C13.2987 13.0284 13.3562 13.0602 13.4484 13.1291L14.5255 11.6869C14.3674 11.5688 14.1945 11.4576 14.0053 11.3726L13.2676 13.0144ZM13.4335 13.1177L15.091 14.4102L16.1979 12.9908L14.5404 11.6983L13.4335 13.1177ZM15.0997 14.4169C15.1097 14.4245 15.1079 14.4249 15.1014 14.4164C15.0983 14.4125 15.0949 14.4076 15.0917 14.402C15.0885 14.3964 15.0861 14.3913 15.0844 14.3872L16.7553 13.7178C16.6339 13.4147 16.4361 13.1718 16.1892 12.9841L15.0997 14.4169ZM15.0742 14.3605C15.096 14.4202 15.1 14.4527 15.1 14.4815H16.9C16.9 14.2023 16.8439 13.9598 16.7655 13.7445L15.0742 14.3605Z" fill="#3FB26D"></path></svg> 