<?xml version="1.0" encoding="UTF-8"?> <svg xmlns="http://www.w3.org/2000/svg" width="20" height="20" viewBox="0 0 20 20" fill="none"><path d="M1 10C1 6.70017 1 5.05025 2.31802 4.02513C3.63604 3 5.75736 3 10 3C14.2426 3 16.364 3 17.682 4.02513C19 5.05025 19 6.70017 19 10C19 13.2998 19 14.9497 17.682 15.9749C16.364 17 14.2426 17 10 17C5.75736 17 3.63604 17 2.31802 15.9749C1 14.9497 1 13.2998 1 10Z" stroke="#3EB16C" stroke-width="1.5" stroke-linejoin="round"></path><path d="M12.925 10.9093C13.625 10.5052 13.625 9.49482 12.925 9.09067L9.325 7.01221C8.625 6.60807 7.75 7.11325 7.75 7.92154L7.75 12.0785C7.75 12.8868 8.625 13.3919 9.325 12.9878L8.95 12.3383L9.325 12.9878L12.925 10.9093Z" stroke="#3EB16C" stroke-width="1.5"></path></svg> 